<?xml version="1.0" standalone="no"?><!DOCTYPE svg PUBLIC "-//W3C//DTD SVG 1.1//EN" "http://www.w3.org/Graphics/SVG/1.1/DTD/svg11.dtd"><svg class="icon" height="512" viewBox="0 0 1506 1024" version="1.1" xmlns="http://www.w3.org/2000/svg"><path d="M637.150993 517.137896C499.573214 331.944544 493.328549 170.94927 615.489811 58.740443 701.158812-19.317872 811.806473-19.317872 897.670619 57.179277c119.429221 107.91562 115.526306 281.009933-17.953413 455.665412 84.498126 41.566053 165.288481 86.059292 249.981753 121.575825 63.812672 26.734973 84.498126 66.544713 82.741814 134.650592-7.41554 292.71868 39.029157 250.56719-253.689523 253.689523-181.680727 1.756312-363.556601-2.732041-545.237328 1.170875-78.058315 1.561166-113.769994-23.222349-112.013682-104.988433 6.244665-296.42645-39.029157-220.514739 214.660366-342.480856zM997.585261 473.42524c117.087472-167.630231 58.543736-304.232281 34.73595-337.21192A166.654502 166.654502 0 0 1 1241.712641 156.313336c88.205896 90.157353 81.570939 199.243848-22.441766 358.873102a1725.869337 1725.869337 0 0 0 184.412769 78.058315c40.200032 13.660205 100.50008 28.491285 100.50008 58.543736 0 276.716725 1.561166 60.300048 1.36602 102.451538 0 82.351522 1.951458 82.741814-1.170875 174.265187-97.572893 0-101.866101 0-214.660365-0.975729-15.806809-97.572893-5.464082-227.149696-53.469945-299.158491s-173.484604-116.69718-238.663298-154.945754zM283.546828 516.552458C177.38752 375.462055 169.581689 253.88623 251.933211 160.801689c56.98257-64.593255 141.480695-54.64082 207.049679-20.490307-47.420426 106.939891-66.935005 145.969048 19.514579 357.116789a432.833355 432.833355 0 0 1-82.351522 41.566053C306.183739 566.119488 226.173967 610.612728 226.173967 683.20696c0 247.249712 5.464082 230.66232-9.562144 247.249712H1.756312c0-53.469946 2.732041-73.17967 0-97.572893 0-78.058315 1.756312 99.914643 0-175.631208C26.930119 616.662247 106.939891 585.634067 173.094313 568.070946c36.492262-9.366998 69.4719-32.003909 110.452515-51.518488zM1.756312 832.688633c0-78.058315 0 97.572893-1.756312-177.972958" /></svg>